<svg xmlns="http://www.w3.org/2000/svg" width="64" height="16" viewBox="0 0 64 16"><g><g><path fill="#222939" d="M12.284.67c.058-.066.121-.126.188-.182.023-.022.018-.018 0 0 .36-.3.832-.456 1.3-.486.805-.034 1.585.382 2.081 1 .502.582.872 1.259 1.204 1.945.5 1.145.786 2.366 1.078 3.577a23.442 23.442 0 0 0 4.234 1.385c1.871.412 3.787.74 5.537 1.553 1.045.458 1.97 1.166 2.722 2.019.525.583.959 1.24 1.373 1.904.652-1.026 1.36-2.045 2.32-2.812.852-.74 1.897-1.217 2.957-1.58 1.617-.574 3.322-.823 4.983-1.232a24.228 24.228 0 0 0 3.616-1.236c.434-1.895.927-3.872 2.19-5.408.389-.523.953-.932 1.599-1.065.706-.15 1.492.049 2.01.561.423.38.531 1.002.442 1.542-.066.57-.374 1.074-.688 1.543-1.208 1.56-2.855 2.732-4.624 3.587-.309 1.207-.649 2.415-1.172 3.55 1.365-.12 2.734.013 4.098.053a9.149 9.149 0 0 0 3.39-.6c.51-1.066.777-2.276 1.578-3.181.374-.432.855-.884 1.471-.848.61-.047 1.132.464 1.277 1.024.114.61-.117 1.228-.492 1.705-.795.98-1.93 1.612-3.054 2.148-.061.112-.121.225-.183.337a9.885 9.885 0 0 1 1.685 0c.842.105 1.678.295 2.532.276 1.331-.005 2.738-.17 3.876-.915.526-.383 1.122-.864 1.135-1.573-.013-.275.097-.575.358-.702.34-.09.652.233.7.548.06.623-.17 1.26-.583 1.727a5.367 5.367 0 0 1-2.472 1.582c-1.143.366-2.359.419-3.55.379-.73-.017-1.448-.172-2.17-.266a5.457 5.457 0 0 0-2.375.236c-.581.596-1.15 1.274-1.963 1.555-.543.225-1.216-.414-.962-.96.375-.762 1.187-1.17 1.964-1.417a.966.966 0 0 0 .477-.3c-1.584.449-3.245.274-4.866.207a16.185 16.185 0 0 0-2.407.096c-.35.614-.717 1.221-1.175 1.76-.595.764-1.32 1.472-2.237 1.83-.406.152-.924.183-1.257-.14-.332-.318-.274-.83-.176-1.236.258-.907.781-1.769 1.575-2.303.757-.528 1.683-.723 2.579-.88a19.562 19.562 0 0 0 1.145-3.166c-1.558.649-3.203 1.063-4.854 1.399-1.698.36-3.43.75-4.939 1.642-1.405.86-2.372 2.247-3.153 3.66.155.375.263.83.07 1.21-.181.308-.573.311-.888.28-.32-.01-.538-.332-.554-.628-.038-.293.073-.571.176-.839-.65-1.18-1.406-2.34-2.47-3.193-.825-.685-1.835-1.091-2.84-1.436-1.578-.505-3.224-.742-4.824-1.157-.958-.287-1.935-.532-2.842-.958.202.546.317 1.12.53 1.662.208.513.4 1.033.65 1.528 1.074.176 2.205.454 3.01 1.233.587.57.981 1.32 1.172 2.113.06.287.074.605-.073.87-.135.278-.441.44-.744.448-.411.021-.803-.146-1.152-.345-1.312-.768-2.161-2.086-2.93-3.354a15.657 15.657 0 0 0-2.518-.09c-1.578.072-3.19.217-4.736-.204.062.062.122.125.183.188.86.27 1.81.645 2.236 1.499.217.42-.139.894-.548 1.011-.245.057-.485-.055-.7-.156-.662-.326-1.145-.9-1.652-1.415-.946-.357-1.998-.344-2.984-.161-1.264.226-2.563.25-3.835.086-1.367-.182-2.737-.728-3.664-1.777-.501-.507-.79-1.25-.638-1.959.092-.303.517-.577.793-.327.237.205.222.534.252.818.054.48.437.823.78 1.124.855.73 1.991 1 3.085 1.118.97.096 1.951.05 2.91-.119.804-.157 1.626-.17 2.44-.116-.097-.145-.161-.333-.338-.4-1.12-.54-2.242-1.195-3-2.203-.318-.454-.503-1.026-.394-1.578.114-.462.47-.863.93-1.002.374-.057.782-.028 1.106.187.615.406 1.064 1.022 1.377 1.68.352.696.569 1.45.913 2.15 1.09.399 2.251.61 3.413.588 1.351-.041 2.705-.173 4.055-.051-.503-1.142-.855-2.341-1.155-3.548-1.276-.624-2.49-1.39-3.52-2.372-.744-.711-1.484-1.508-1.758-2.526-.119-.581-.103-1.281.354-1.722zm.706 1.51c.171.511.474.972.85 1.356.858.965 1.911 1.739 3.034 2.374-.281-1.17-.62-2.344-1.252-3.379-.302-.489-.628-1.012-1.146-1.3-.453-.26-1.09-.194-1.441.203-.144.22-.113.506-.045.747zm35.948-.43c-.99 1.189-1.44 2.7-1.818 4.17 1.306-.735 2.516-1.67 3.44-2.855.304-.455.653-1.02.446-1.582-.198-.28-.558-.402-.89-.41-.474.017-.904.304-1.178.678-.274.374 0 0 0 0zM7.725 8.04c.377.709 1.099 1.118 1.729 1.575-.31-.685-.558-1.426-1.102-1.97-.154-.142-.326-.348-.556-.322-.293.131-.187.495-.071.717.115.221 0 0 0 0zm48.248-.655c-.733.516-1.07 1.39-1.39 2.19.693-.464 1.506-.935 1.79-1.766.138-.25-.128-.666-.4-.424-.273.242 0 0 0 0zm-35.66 4.83c.657.91 1.35 1.913 2.44 2.335-.158-.514-.377-1.023-.744-1.425-.434-.497-1.072-.745-1.695-.91-.623-.167 0 0 0 0zm22.245.452c-.681.404-1.104 1.134-1.293 1.885.403-.172.779-.41 1.098-.711.536-.485.92-1.105 1.384-1.653-.406.132-.826.245-1.189.48z"/></g></g></svg>