<svg xmlns="http://www.w3.org/2000/svg" width="16" height="21" viewBox="0 0 16 21">
    <g>
        <g>
            <path fill="#222939" d="M15.998 20.468a.452.452 0 0 1-.12.38.482.482 0 0 1-.365.151H.484c-.145 0-.29-.05-.364-.151a.638.638 0 0 1-.12-.38L.968 6.3c.024-.278.242-.48.485-.48H4.12V4.047C4.12 1.821 5.866 0 8 0s3.878 1.821 3.878 4.047V5.82h2.667c.267 0 .46.227.485.48zM5.09 5.818h5.818v-1.77c0-1.67-1.31-3.036-2.91-3.036S5.09 2.378 5.09 4.047zm9.89 14.169l-.897-13.156h-2.206v3.29a.497.497 0 0 1-.485.505.497.497 0 0 1-.484-.506V6.83H5.09v3.29a.497.497 0 0 1-.485.506.497.497 0 0 1-.485-.506V6.83H1.89L.993 19.988z"/>
        </g>
    </g>
</svg>
