<svg xmlns="http://www.w3.org/2000/svg" width="16" height="18" viewBox="0 0 16 18"><defs><clipPath id="6qcea"><path fill="#fff" d="M0 12.913v.413c0 .13.059.228.128.34 1.675 2.673 4.685 4.331 7.857 4.331 3.18 0 6.19-1.672 7.856-4.364l.048-.086a.664.664 0 0 0 .046-.084l.064-.106-.016-.618-.07-.212c-.757-1.62-2.113-3.024-3.8-3.906l-.513-.269.372-.464a4.784 4.784 0 0 0 1.062-3.028c-.038-2.678-2.303-4.863-5.05-4.863C5.22-.003 2.97 2.2 2.97 4.908c0 1.106.367 2.148 1.062 3.014l.372.464-.514.27C2.231 9.521.888 10.901.106 12.537c-.106.174-.106.3-.106.375z"/></clipPath></defs><g><g><path fill="none" stroke="#222939" stroke-miterlimit="20" stroke-width="2.2" d="M0 12.913v.413c0 .13.059.228.128.34 1.675 2.673 4.685 4.331 7.857 4.331 3.18 0 6.19-1.672 7.856-4.364l.048-.086a.664.664 0 0 0 .046-.084l.064-.106v0l-.016-.618v0l-.07-.212c-.757-1.62-2.113-3.024-3.8-3.906l-.513-.269v0l.372-.464a4.784 4.784 0 0 0 1.062-3.028c-.038-2.678-2.303-4.863-5.05-4.863C5.22-.003 2.97 2.2 2.97 4.908c0 1.106.367 2.148 1.062 3.014l.372.464v0l-.514.27C2.231 9.521.888 10.901.106 12.537c-.106.174-.106.3-.106.375z" clip-path="url(&quot;#6qcea&quot;)"/></g></g></svg>