<svg xmlns="http://www.w3.org/2000/svg" width="19" height="16" viewBox="0 0 19 16"><defs><clipPath id="8cyqa"><path fill="#fff" d="M18.738 3.57c-.452-1.359-1.47-2.451-2.868-3.076a5.637 5.637 0 0 0-2.314-.483c-1.55 0-3.002.565-4.051 1.564C8.455.576 7.004.011 5.453.011c-.818 0-1.597.163-2.316.484C1.742 1.119.724 2.21.271 3.57c-.37 1.106-.532 2.895.784 5.14 1.339 2.29 3.593 3.972 7.328 6.76l.402.3a1.206 1.206 0 0 0 1.439 0l.392-.294c3.74-2.79 5.998-4.475 7.338-6.766 1.316-2.246 1.153-4.035.784-5.14z"/></clipPath></defs><g><g><path fill="none" stroke="#222939" stroke-miterlimit="20" stroke-width="2.2" d="M18.738 3.57c-.452-1.359-1.47-2.451-2.868-3.076a5.637 5.637 0 0 0-2.314-.483c-1.55 0-3.002.565-4.051 1.564C8.455.576 7.004.011 5.453.011c-.818 0-1.597.163-2.316.484C1.742 1.119.724 2.21.271 3.57c-.37 1.106-.532 2.895.784 5.14 1.339 2.29 3.593 3.972 7.328 6.76l.402.3a1.206 1.206 0 0 0 1.439 0l.392-.294c3.74-2.79 5.998-4.475 7.338-6.766 1.316-2.246 1.153-4.035.784-5.14z" clip-path="url(&quot;#8cyqa&quot;)"/></g></g></svg>