<svg xmlns="http://www.w3.org/2000/svg" width="16" height="17" viewBox="0 0 16 17"><g><g><path fill="#222939" d="M13.803 7.08a7.161 7.161 0 0 1-1.748 4.703l-.143.164 3.911 4.005c.231.237.231.622 0 .858a.575.575 0 0 1-.833 0l-3.899-3.991-.064-.065-.159.114a6.752 6.752 0 0 1-3.971 1.285c-3.808 0-6.907-3.172-6.907-7.073C-.01 3.18 3.09.007 6.897.007s6.906 3.173 6.906 7.073zm-1.099 0c0-3.278-2.605-5.944-5.807-5.944-3.202 0-5.807 2.666-5.807 5.944s2.605 5.944 5.807 5.944c3.202 0 5.807-2.666 5.807-5.944z"/></g></g></svg>